<svg width="161" height="203" viewBox="0 0 161 203" fill="none" xmlns="http://www.w3.org/2000/svg">
<circle cx="81.0011" cy="102.144" r="68.5714" fill="#E9F1F7"/>
<g filter="url(#filter0_d_10915_41816)">
<rect x="28.3359" y="24.125" width="105.143" height="154.286" rx="8" fill="white"/>
</g>
<rect x="36.3359" y="110.332" width="89.3333" height="25.3333" rx="5.33333" fill="#E9F1F7"/>
<rect x="36.3359" y="78.332" width="42.6667" height="9.33333" rx="4.66667" fill="#F7FAFA"/>
<rect x="36.3359" y="93" width="89.3333" height="9.33333" rx="4.66667" fill="#F7FAFA"/>
<rect x="36.3359" y="143.666" width="77.3333" height="9.33333" rx="4.66667" fill="#F7FAFA"/>
<rect x="36.3359" y="158.332" width="72" height="9.33333" rx="4.66667" fill="#F7FAFA"/>
<rect x="81.6641" y="78.332" width="42.6667" height="9.33333" rx="4.66667" fill="#F7FAFA"/>
<circle cx="80.3073" cy="51.6628" r="18.6667" fill="#F7FAFA"/>
<path d="M88.0869 55.9179C88.0869 56.1979 88.0247 56.4857 87.8925 56.7657C87.7602 57.0457 87.5891 57.3101 87.3636 57.559C86.9825 57.979 86.5625 58.2824 86.088 58.4768C85.6214 58.6712 85.1158 58.7724 84.5714 58.7724C83.778 58.7724 82.9302 58.5857 82.0358 58.2046C81.1414 57.8235 80.2469 57.3101 79.3602 56.6646C78.4658 56.0112 77.618 55.2879 76.8091 54.4868C76.008 53.6779 75.2847 52.8301 74.6391 51.9435C74.0014 51.0568 73.488 50.1701 73.1147 49.2912C72.7414 48.4046 72.5547 47.5568 72.5547 46.7479C72.5547 46.219 72.648 45.7135 72.8347 45.2468C73.0214 44.7724 73.3169 44.3368 73.7291 43.9479C74.2269 43.4579 74.7714 43.2168 75.3469 43.2168C75.5647 43.2168 75.7825 43.2635 75.9769 43.3568C76.1791 43.4501 76.358 43.5901 76.498 43.7924L78.3025 46.3357C78.4425 46.5301 78.5436 46.709 78.6136 46.8801C78.6836 47.0435 78.7225 47.2068 78.7225 47.3546C78.7225 47.5412 78.668 47.7279 78.5591 47.9068C78.458 48.0857 78.3102 48.2724 78.1236 48.459L77.5325 49.0735C77.4469 49.159 77.408 49.2601 77.408 49.3846C77.408 49.4468 77.4158 49.5012 77.4314 49.5635C77.4547 49.6257 77.478 49.6724 77.4936 49.719C77.6336 49.9757 77.8747 50.3101 78.2169 50.7146C78.5669 51.119 78.9402 51.5312 79.3447 51.9435C79.7647 52.3557 80.1691 52.7368 80.5814 53.0868C80.9858 53.429 81.3202 53.6624 81.5847 53.8024C81.6236 53.8179 81.6702 53.8412 81.7247 53.8646C81.7869 53.8879 81.8491 53.8957 81.9191 53.8957C82.0514 53.8957 82.1525 53.849 82.238 53.7635L82.8291 53.1801C83.0236 52.9857 83.2102 52.8379 83.3891 52.7446C83.568 52.6357 83.7469 52.5812 83.9414 52.5812C84.0891 52.5812 84.2447 52.6124 84.4158 52.6824C84.5869 52.7524 84.7658 52.8535 84.9602 52.9857L87.5347 54.8135C87.7369 54.9535 87.8769 55.1168 87.9625 55.3112C88.0402 55.5057 88.0869 55.7001 88.0869 55.9179Z" fill="#0E4160"/>
<circle cx="137.873" cy="158.517" r="22.8571" fill="#0E4160"/>
<path d="M141.809 149.289L132.779 152.289C126.709 154.319 126.709 157.629 132.779 159.649L135.459 160.539L136.349 163.219C138.369 169.289 141.689 169.289 143.709 163.219L146.719 154.199C148.059 150.149 145.859 147.939 141.809 149.289ZM142.129 154.669L138.329 158.489C138.179 158.639 137.989 158.709 137.799 158.709C137.609 158.709 137.419 158.639 137.269 158.489C136.979 158.199 136.979 157.719 137.269 157.429L141.069 153.609C141.359 153.319 141.839 153.319 142.129 153.609C142.419 153.899 142.419 154.379 142.129 154.669Z" fill="white"/>
<path d="M151.318 56.8233C151.496 56.3132 152.218 56.3132 152.396 56.8233L153.347 59.5368C153.425 59.7614 153.635 59.9138 153.873 59.9192L156.747 59.9844C157.288 59.9966 157.511 60.6827 157.081 61.0102L154.794 62.7524C154.604 62.8966 154.524 63.1432 154.593 63.3712L155.419 66.1249C155.574 66.6426 154.99 67.0666 154.546 66.7589L152.182 65.1222C151.987 64.9867 151.728 64.9867 151.532 65.1222L149.168 66.7589C148.724 67.0666 148.14 66.6426 148.296 66.1249L149.122 63.3712C149.19 63.1432 149.11 62.8966 148.921 62.7524L146.634 61.0102C146.204 60.6827 146.427 59.9966 146.967 59.9844L149.841 59.9192C150.079 59.9138 150.289 59.7614 150.368 59.5368L151.318 56.8233Z" fill="#E9F1F7"/>
<circle cx="10.1496" cy="153.571" r="4.57143" fill="#E9F1F7"/>
<circle cx="18.7243" cy="44.4294" r="2.85714" fill="#E9F1F7"/>
<rect x="-0.0703125" y="65.1699" width="9.14286" height="9.14286" rx="0.571429" transform="rotate(-34 -0.0703125 65.1699)" fill="#E9F1F7"/>
<defs>
<filter id="filter0_d_10915_41816" x="4.33593" y="0.124996" width="153.141" height="202.285" filterUnits="userSpaceOnUse" color-interpolation-filters="sRGB">
<feFlood flood-opacity="0" result="BackgroundImageFix"/>
<feColorMatrix in="SourceAlpha" type="matrix" values="0 0 0 0 0 0 0 0 0 0 0 0 0 0 0 0 0 0 127 0" result="hardAlpha"/>
<feOffset/>
<feGaussianBlur stdDeviation="12"/>
<feComposite in2="hardAlpha" operator="out"/>
<feColorMatrix type="matrix" values="0 0 0 0 0 0 0 0 0 0.433333 0 0 0 0 0.392889 0 0 0 0.06 0"/>
<feBlend mode="normal" in2="BackgroundImageFix" result="effect1_dropShadow_10915_41816"/>
<feBlend mode="normal" in="SourceGraphic" in2="effect1_dropShadow_10915_41816" result="shape"/>
</filter>
</defs>
</svg>
